# xmcd
#
# Track frame offsets: 
#        150
#        22540
#        43627
#        61666
#        84745
#        103215
#        122522
#        148431
#        172503
#        193397
#        212990
#        228902
#        242989
#        257689
#        273129
#
# Disc length: 3909 seconds
#
# Revision: 0
# Processed by: cddbd v1.5.2PL0 Copyright (c) Steve Scherf et al.
# Submitted via: ExactAudioCopy v1.0b1
#
DISCID=cd0f430f
DTITLE=Marco - Hold On
DYEAR=1997
DGENRE=Blues
TTITLE0=Stinging Bee
TTITLE1=Waiting for Inspiration
TTITLE2=Yours Tonight
TTITLE3=Gonna' Burn
TTITLE4=Ain't No Body's Perfect
TTITLE5=Gift to Me
TTITLE6=Don't Turn Your Back
TTITLE7=Hold On
TTITLE8=Hurtin Tide
TTITLE9=Traded In
TTITLE10=Blow It All Away
TTITLE11=Dirt Diggers
TTITLE12=Good Times and Teardrops
TTITLE13=Why Did You Cry
TTITLE14=Every Time We Make Love
EXTD=
EXTT0=
EXTT1=
EXTT2=
EXTT3=
EXTT4=
EXTT5=
EXTT6=
EXTT7=
EXTT8=
EXTT9=
EXTT10=
EXTT11=
EXTT12=
EXTT13=
EXTT14=
PLAYORDER=
